<svg xmlns="http://www.w3.org/2000/svg" xmlns:xlink="http://www.w3.org/1999/xlink" version="1.1" width="256" height="256" viewBox="0 0 256 256" xml:space="preserve">

<defs>
</defs>
<g style="stroke: none; stroke-width: 0; stroke-dasharray: none; stroke-linecap: butt; stroke-linejoin: miter; stroke-miterlimit: 10; fill: none; fill-rule: nonzero; opacity: 1;" transform="translate(1.4065934065934016 1.4065934065934016) scale(2.81 2.81)" >
	<path d="M 85.774 14.385 c 0.71 0 1.288 -0.655 1.174 -1.389 c -0.633 -4.069 -4.004 -7.175 -8.066 -7.175 h -5.912 l -6.313 8.564 H 85.774 z" style="stroke: none; stroke-width: 1; stroke-dasharray: none; stroke-linecap: butt; stroke-linejoin: miter; stroke-miterlimit: 10; fill: rgb(190,201,208); fill-rule: nonzero; opacity: 1;" transform=" matrix(1 0 0 1 0 0) " stroke-linecap="round" />
	<path d="M 17.712 75.826 V 59.64 V 14.174 c 0 -4.615 3.741 -8.356 8.356 -8.356 h 0 h 0 h 52.537 h 0 h 0 c -4.615 0 -8.356 3.741 -8.356 8.356 V 59.64 v 16.185 c 0 4.615 -3.741 8.356 -8.356 8.356 h 0 L 17.712 75.826 z" style="stroke: none; stroke-width: 1; stroke-dasharray: none; stroke-linecap: butt; stroke-linejoin: miter; stroke-miterlimit: 10; fill: rgb(225,234,239); fill-rule: nonzero; opacity: 1;" transform=" matrix(1 0 0 1 0 0) " stroke-linecap="round" />
	<path d="M 17.774 75.615 h 34.702 c 0.786 0 1.417 0.601 1.544 1.389 c 0.653 4.069 4.129 7.175 8.318 7.175 H 9.345 h 0 c -4.222 0 -7.719 -3.154 -8.333 -7.27 c -0.102 -0.684 0.449 -1.294 1.13 -1.294 L 17.774 75.615" style="stroke: none; stroke-width: 1; stroke-dasharray: none; stroke-linecap: butt; stroke-linejoin: miter; stroke-miterlimit: 10; fill: rgb(190,201,208); fill-rule: nonzero; opacity: 1;" transform=" matrix(1 0 0 1 0 0) " stroke-linecap="round" />
	<path d="M 70.249 60.641 c -0.553 0 -1 -0.447 -1 -1 V 14.174 c 0 -5.159 4.197 -9.356 9.356 -9.356 s 9.356 4.197 9.356 9.356 c 0 0.552 -0.447 1 -1 1 H 71.249 v 44.466 C 71.249 60.193 70.802 60.641 70.249 60.641 z M 71.316 13.174 h 14.578 c -0.49 -3.585 -3.572 -6.356 -7.289 -6.356 S 71.807 9.589 71.316 13.174 z" style="stroke: none; stroke-width: 1; stroke-dasharray: none; stroke-linecap: butt; stroke-linejoin: miter; stroke-miterlimit: 10; fill: rgb(0,0,0); fill-rule: nonzero; opacity: 1;" transform=" matrix(1 0 0 1 0 0) " stroke-linecap="round" />
	<path d="M 17.712 60.641 c -0.552 0 -1 -0.447 -1 -1 V 14.174 c 0 -5.159 4.197 -9.356 9.356 -9.356 c 0.552 0 1 0.448 1 1 s -0.448 1 -1 1 c -4.056 0 -7.356 3.3 -7.356 7.356 v 45.466 C 18.712 60.193 18.265 60.641 17.712 60.641 z" style="stroke: none; stroke-width: 1; stroke-dasharray: none; stroke-linecap: butt; stroke-linejoin: miter; stroke-miterlimit: 10; fill: rgb(0,0,0); fill-rule: nonzero; opacity: 1;" transform=" matrix(1 0 0 1 0 0) " stroke-linecap="round" />
	<path d="M 78.605 6.818 H 26.069 c -0.552 0 -1 -0.448 -1 -1 s 0.448 -1 1 -1 h 52.537 c 0.553 0 1 0.448 1 1 S 79.158 6.818 78.605 6.818 z" style="stroke: none; stroke-width: 1; stroke-dasharray: none; stroke-linecap: butt; stroke-linejoin: miter; stroke-miterlimit: 10; fill: rgb(0,0,0); fill-rule: nonzero; opacity: 1;" transform=" matrix(1 0 0 1 0 0) " stroke-linecap="round" />
	<path d="M 17.712 76.826 c -0.552 0 -1 -0.447 -1 -1 V 59.641 c 0 -0.553 0.448 -1 1 -1 s 1 0.447 1 1 v 16.186 C 18.712 76.379 18.265 76.826 17.712 76.826 z" style="stroke: none; stroke-width: 1; stroke-dasharray: none; stroke-linecap: butt; stroke-linejoin: miter; stroke-miterlimit: 10; fill: rgb(0,0,0); fill-rule: nonzero; opacity: 1;" transform=" matrix(1 0 0 1 0 0) " stroke-linecap="round" />
	<path d="M 61.894 85.182 c -0.553 0 -1 -0.447 -1 -1 s 0.447 -1 1 -1 c 4.056 0 7.355 -3.3 7.355 -7.355 V 59.641 c 0 -0.553 0.447 -1 1 -1 s 1 0.447 1 1 v 16.186 C 71.249 80.984 67.052 85.182 61.894 85.182 z" style="stroke: none; stroke-width: 1; stroke-dasharray: none; stroke-linecap: butt; stroke-linejoin: miter; stroke-miterlimit: 10; fill: rgb(0,0,0); fill-rule: nonzero; opacity: 1;" transform=" matrix(1 0 0 1 0 0) " stroke-linecap="round" />
	<path d="M 61.894 85.182 H 9.356 c -0.552 0 -1 -0.447 -1 -1 s 0.448 -1 1 -1 h 52.537 c 0.553 0 1 0.447 1 1 S 62.446 85.182 61.894 85.182 z" style="stroke: none; stroke-width: 1; stroke-dasharray: none; stroke-linecap: butt; stroke-linejoin: miter; stroke-miterlimit: 10; fill: rgb(0,0,0); fill-rule: nonzero; opacity: 1;" transform=" matrix(1 0 0 1 0 0) " stroke-linecap="round" />
	<path d="M 61.894 85.182 c -4.821 0 -8.803 -3.665 -9.304 -8.355 H 2.068 c 0.489 3.585 3.571 6.355 7.289 6.355 c 0.552 0 1 0.447 1 1 s -0.448 1 -1 1 C 4.197 85.182 0 80.984 0 75.826 c 0 -0.553 0.448 -1 1 -1 h 52.537 c 0.553 0 1 0.447 1 1 c 0 4.056 3.3 7.355 7.356 7.355 c 0.553 0 1 0.447 1 1 S 62.446 85.182 61.894 85.182 z" style="stroke: none; stroke-width: 1; stroke-dasharray: none; stroke-linecap: butt; stroke-linejoin: miter; stroke-miterlimit: 10; fill: rgb(0,0,0); fill-rule: nonzero; opacity: 1;" transform=" matrix(1 0 0 1 0 0) " stroke-linecap="round" />
	<path d="M 51.617 52.395 H 26.069 c -0.552 0 -1 -0.447 -1 -1 s 0.448 -1 1 -1 h 25.548 c 0.553 0 1 0.447 1 1 S 52.17 52.395 51.617 52.395 z" style="stroke: none; stroke-width: 1; stroke-dasharray: none; stroke-linecap: butt; stroke-linejoin: miter; stroke-miterlimit: 10; fill: rgb(0,0,0); fill-rule: nonzero; opacity: 1;" transform=" matrix(1 0 0 1 0 0) " stroke-linecap="round" />
	<path d="M 51.617 60.209 H 26.069 c -0.552 0 -1 -0.447 -1 -1 s 0.448 -1 1 -1 h 25.548 c 0.553 0 1 0.447 1 1 S 52.17 60.209 51.617 60.209 z" style="stroke: none; stroke-width: 1; stroke-dasharray: none; stroke-linecap: butt; stroke-linejoin: miter; stroke-miterlimit: 10; fill: rgb(0,0,0); fill-rule: nonzero; opacity: 1;" transform=" matrix(1 0 0 1 0 0) " stroke-linecap="round" />
	<path d="M 86.824 67.803 H 59.868 c -1.202 0 -2.176 -0.974 -2.176 -2.176 V 26.479 c 0 -1.202 0.974 -2.176 2.176 -2.176 h 26.956 c 1.202 0 2.176 0.974 2.176 2.176 v 39.148 C 89 66.829 88.026 67.803 86.824 67.803 z" style="stroke: none; stroke-width: 1; stroke-dasharray: none; stroke-linecap: butt; stroke-linejoin: miter; stroke-miterlimit: 10; fill: rgb(238,187,80); fill-rule: nonzero; opacity: 1;" transform=" matrix(1 0 0 1 0 0) " stroke-linecap="round" />
	<rect x="63.62" y="42.43" rx="0" ry="0" width="7.25" height="7.25" style="stroke: none; stroke-width: 1; stroke-dasharray: none; stroke-linecap: butt; stroke-linejoin: miter; stroke-miterlimit: 10; fill: rgb(68,196,161); fill-rule: nonzero; opacity: 1;" transform=" matrix(1 0 0 1 0 0) "/>
	<rect x="75.81" y="42.43" rx="0" ry="0" width="7.25" height="7.25" style="stroke: none; stroke-width: 1; stroke-dasharray: none; stroke-linecap: butt; stroke-linejoin: miter; stroke-miterlimit: 10; fill: rgb(68,196,161); fill-rule: nonzero; opacity: 1;" transform=" matrix(1 0 0 1 0 0) "/>
	<rect x="63.62" y="54.62" rx="0" ry="0" width="7.25" height="7.25" style="stroke: none; stroke-width: 1; stroke-dasharray: none; stroke-linecap: butt; stroke-linejoin: miter; stroke-miterlimit: 10; fill: rgb(68,196,161); fill-rule: nonzero; opacity: 1;" transform=" matrix(1 0 0 1 0 0) "/>
	<rect x="75.81" y="54.62" rx="0" ry="0" width="7.25" height="7.25" style="stroke: none; stroke-width: 1; stroke-dasharray: none; stroke-linecap: butt; stroke-linejoin: miter; stroke-miterlimit: 10; fill: rgb(68,196,161); fill-rule: nonzero; opacity: 1;" transform=" matrix(1 0 0 1 0 0) "/>
	<rect x="63.62" y="30.23" rx="0" ry="0" width="19.45" height="7.25" style="stroke: none; stroke-width: 1; stroke-dasharray: none; stroke-linecap: butt; stroke-linejoin: miter; stroke-miterlimit: 10; fill: rgb(231,236,246); fill-rule: nonzero; opacity: 1;" transform=" matrix(1 0 0 1 0 0) "/>
	<path d="M 86.824 68.803 H 59.868 c -1.751 0 -3.176 -1.425 -3.176 -3.176 V 26.479 c 0 -1.751 1.425 -3.176 3.176 -3.176 h 26.956 c 1.751 0 3.176 1.425 3.176 3.176 v 39.147 C 90 67.378 88.575 68.803 86.824 68.803 z M 59.868 25.304 c -0.648 0 -1.176 0.527 -1.176 1.176 v 39.147 c 0 0.648 0.527 1.176 1.176 1.176 h 26.956 c 0.648 0 1.176 -0.527 1.176 -1.176 V 26.479 c 0 -0.648 -0.527 -1.176 -1.176 -1.176 H 59.868 z" style="stroke: none; stroke-width: 1; stroke-dasharray: none; stroke-linecap: butt; stroke-linejoin: miter; stroke-miterlimit: 10; fill: rgb(0,0,0); fill-rule: nonzero; opacity: 1;" transform=" matrix(1 0 0 1 0 0) " stroke-linecap="round" />
	<path d="M 70.878 50.681 h -7.255 c -0.553 0 -1 -0.447 -1 -1 v -7.254 c 0 -0.552 0.447 -1 1 -1 h 7.255 c 0.553 0 1 0.448 1 1 v 7.254 C 71.878 50.233 71.431 50.681 70.878 50.681 z M 64.623 48.681 h 5.255 v -5.254 h -5.255 V 48.681 z" style="stroke: none; stroke-width: 1; stroke-dasharray: none; stroke-linecap: butt; stroke-linejoin: miter; stroke-miterlimit: 10; fill: rgb(0,0,0); fill-rule: nonzero; opacity: 1;" transform=" matrix(1 0 0 1 0 0) " stroke-linecap="round" />
	<path d="M 83.069 50.681 h -7.254 c -0.553 0 -1 -0.447 -1 -1 v -7.254 c 0 -0.552 0.447 -1 1 -1 h 7.254 c 0.553 0 1 0.448 1 1 v 7.254 C 84.069 50.233 83.622 50.681 83.069 50.681 z M 76.815 48.681 h 5.254 v -5.254 h -5.254 V 48.681 z" style="stroke: none; stroke-width: 1; stroke-dasharray: none; stroke-linecap: butt; stroke-linejoin: miter; stroke-miterlimit: 10; fill: rgb(0,0,0); fill-rule: nonzero; opacity: 1;" transform=" matrix(1 0 0 1 0 0) " stroke-linecap="round" />
	<path d="M 70.878 62.872 h -7.255 c -0.553 0 -1 -0.447 -1 -1 v -7.254 c 0 -0.553 0.447 -1 1 -1 h 7.255 c 0.553 0 1 0.447 1 1 v 7.254 C 71.878 62.425 71.431 62.872 70.878 62.872 z M 64.623 60.872 h 5.255 v -5.254 h -5.255 V 60.872 z" style="stroke: none; stroke-width: 1; stroke-dasharray: none; stroke-linecap: butt; stroke-linejoin: miter; stroke-miterlimit: 10; fill: rgb(0,0,0); fill-rule: nonzero; opacity: 1;" transform=" matrix(1 0 0 1 0 0) " stroke-linecap="round" />
	<path d="M 83.069 62.872 h -7.254 c -0.553 0 -1 -0.447 -1 -1 v -7.254 c 0 -0.553 0.447 -1 1 -1 h 7.254 c 0.553 0 1 0.447 1 1 v 7.254 C 84.069 62.425 83.622 62.872 83.069 62.872 z M 76.815 60.872 h 5.254 v -5.254 h -5.254 V 60.872 z" style="stroke: none; stroke-width: 1; stroke-dasharray: none; stroke-linecap: butt; stroke-linejoin: miter; stroke-miterlimit: 10; fill: rgb(0,0,0); fill-rule: nonzero; opacity: 1;" transform=" matrix(1 0 0 1 0 0) " stroke-linecap="round" />
	<path d="M 83.069 38.489 H 63.623 c -0.553 0 -1 -0.448 -1 -1 v -7.254 c 0 -0.552 0.447 -1 1 -1 h 19.446 c 0.553 0 1 0.448 1 1 v 7.254 C 84.069 38.041 83.622 38.489 83.069 38.489 z M 64.623 36.489 h 17.446 v -5.254 H 64.623 V 36.489 z" style="stroke: none; stroke-width: 1; stroke-dasharray: none; stroke-linecap: butt; stroke-linejoin: miter; stroke-miterlimit: 10; fill: rgb(0,0,0); fill-rule: nonzero; opacity: 1;" transform=" matrix(1 0 0 1 0 0) " stroke-linecap="round" />
	<circle cx="37.199" cy="32.958999999999996" r="11.129" style="stroke: none; stroke-width: 1; stroke-dasharray: none; stroke-linecap: butt; stroke-linejoin: miter; stroke-miterlimit: 10; fill: rgb(49,151,140); fill-rule: nonzero; opacity: 1;" transform="  matrix(1 0 0 1 0 0) "/>
	<path d="M 37.198 45.084 c -6.688 0 -12.129 -5.441 -12.129 -12.129 s 5.441 -12.129 12.129 -12.129 s 12.129 5.441 12.129 12.129 S 43.886 45.084 37.198 45.084 z M 37.198 22.826 c -5.585 0 -10.129 4.544 -10.129 10.129 s 4.544 10.129 10.129 10.129 c 5.585 0 10.129 -4.544 10.129 -10.129 S 42.783 22.826 37.198 22.826 z" style="stroke: none; stroke-width: 1; stroke-dasharray: none; stroke-linecap: butt; stroke-linejoin: miter; stroke-miterlimit: 10; fill: rgb(0,0,0); fill-rule: nonzero; opacity: 1;" transform=" matrix(1 0 0 1 0 0) " stroke-linecap="round" />
	<path d="M 37.111 39.452 c -0.519 0 -1.036 -0.111 -1.521 -0.332 c -0.895 -0.407 -1.578 -1.138 -1.924 -2.059 c -0.194 -0.517 0.068 -1.093 0.585 -1.288 c 0.517 -0.192 1.094 0.068 1.288 0.585 c 0.158 0.42 0.469 0.754 0.878 0.94 c 0.408 0.187 0.864 0.201 1.286 0.043 c 0.42 -0.157 0.754 -0.469 0.94 -0.878 c 0.186 -0.409 0.201 -0.866 0.043 -1.286 c -0.186 -0.497 -0.587 -0.869 -1.1 -1.019 l -1.402 -0.511 c -1.06 -0.309 -1.938 -1.124 -2.347 -2.215 c -0.345 -0.92 -0.311 -1.92 0.096 -2.815 s 1.138 -1.578 2.059 -1.924 c 1.901 -0.71 4.026 0.254 4.74 2.154 c 0.194 0.517 -0.068 1.093 -0.585 1.288 c -0.516 0.192 -1.093 -0.068 -1.288 -0.585 c -0.325 -0.868 -1.297 -1.31 -2.165 -0.983 c -0.42 0.158 -0.754 0.47 -0.94 0.878 s -0.201 0.865 -0.043 1.286 c 0.186 0.497 0.587 0.869 1.1 1.019 l 1.402 0.511 c 1.06 0.309 1.938 1.124 2.348 2.215 c 0.345 0.921 0.311 1.921 -0.096 2.816 c -0.407 0.895 -1.138 1.578 -2.059 1.923 C 37.984 39.374 37.547 39.452 37.111 39.452 z" style="stroke: none; stroke-width: 1; stroke-dasharray: none; stroke-linecap: butt; stroke-linejoin: miter; stroke-miterlimit: 10; fill: rgb(0,0,0); fill-rule: nonzero; opacity: 1;" transform=" matrix(1 0 0 1 0 0) " stroke-linecap="round" />
	<path d="M 37.198 28.463 c -0.552 0 -1 -0.448 -1 -1 v -1.499 c 0 -0.552 0.448 -1 1 -1 s 1 0.448 1 1 v 1.499 C 38.198 28.015 37.75 28.463 37.198 28.463 z" style="stroke: none; stroke-width: 1; stroke-dasharray: none; stroke-linecap: butt; stroke-linejoin: miter; stroke-miterlimit: 10; fill: rgb(0,0,0); fill-rule: nonzero; opacity: 1;" transform=" matrix(1 0 0 1 0 0) " stroke-linecap="round" />
	<path d="M 37.198 40.945 c -0.552 0 -1 -0.448 -1 -1 v -1.498 c 0 -0.552 0.448 -1 1 -1 s 1 0.448 1 1 v 1.498 C 38.198 40.498 37.75 40.945 37.198 40.945 z" style="stroke: none; stroke-width: 1; stroke-dasharray: none; stroke-linecap: butt; stroke-linejoin: miter; stroke-miterlimit: 10; fill: rgb(0,0,0); fill-rule: nonzero; opacity: 1;" transform=" matrix(1 0 0 1 0 0) " stroke-linecap="round" />
	<path d="M 51.617 68.023 H 39.745 c -0.552 0 -1 -0.447 -1 -1 s 0.448 -1 1 -1 h 11.873 c 0.553 0 1 0.447 1 1 S 52.17 68.023 51.617 68.023 z" style="stroke: none; stroke-width: 1; stroke-dasharray: none; stroke-linecap: butt; stroke-linejoin: miter; stroke-miterlimit: 10; fill: rgb(0,0,0); fill-rule: nonzero; opacity: 1;" transform=" matrix(1 0 0 1 0 0) " stroke-linecap="round" />
</g>
</svg>